<?xml version="1.0" encoding="UTF-8"?>
<svg xmlns="http://www.w3.org/2000/svg" xmlns:xlink="http://www.w3.org/1999/xlink" version="1.1" id="Layer_1" x="0px" y="0px" width="100%" viewBox="0 0 512 512" enable-background="new 0 0 512 512" xml:space="preserve" style="background: transparent;">

<path fill="#BC9048" opacity="1.000000" stroke="none" d=" M256.967773,500.854980   C230.352325,500.902771 203.736755,500.922272 177.121597,501.038208   C174.163635,501.051117 173.400482,499.940948 172.879089,497.031219   C169.115631,476.028412 164.948074,455.098389 161.102371,434.109802   C157.283768,413.269012 153.738770,392.378265 149.980087,371.526306   C148.132782,361.277924 146.073593,351.067749 144.592224,340.439819   C182.330017,340.082703 219.585907,340.126068 256.870911,340.626648   C256.922638,394.340881 256.945221,447.597900 256.967773,500.854980  z"/>
<path fill="#9C702F" opacity="1.000000" stroke="none" d=" M257.433838,500.923401   C256.945221,447.597900 256.922638,394.340881 256.932983,340.561584   C256.965912,340.039337 257.089233,339.911987 257.548615,339.936829   C293.141052,339.976044 328.274231,340.024506 363.406952,339.921661   C365.556610,339.915375 367.702759,338.711304 369.850525,338.064514   C367.546875,351.436005 365.338440,364.824799 362.914825,378.174530   C360.054901,393.927612 356.993042,409.643921 354.047424,425.381561   C350.105835,446.440735 346.206268,467.507812 342.253235,488.564850   C341.501923,492.567108 341.849762,498.461487 339.433899,500.049194   C336.240051,502.148132 330.822449,501.001892 326.360291,501.009125   C303.540192,501.046112 280.720032,501.005402 257.433838,500.923401  z"/>
<path fill="#778A4F" opacity="1.000000" stroke="none" d=" M256.950897,169.961823   C256.460205,151.738129 258.306396,133.758545 264.081177,116.440041   C268.915161,101.942955 275.616516,88.340248 285.746155,76.580124   C297.235077,63.241856 309.654572,50.950153 324.406921,41.268806   C341.033234,30.357605 359.496063,23.699263 378.690735,18.994720   C388.159210,16.674028 397.725922,14.753991 408.333710,12.413109   C407.059052,18.700687 406.445679,24.186913 404.806732,29.347439   C399.970764,44.574429 395.607147,60.045712 389.377319,74.706947   C384.074188,87.187233 376.383209,98.552048 367.001770,108.719971   C349.125946,128.094452 326.703583,141.393311 305.224640,155.961060   C295.738159,162.395081 285.952881,168.355179 278.376282,177.202316   C273.531097,182.859985 270.212280,189.142899 270.086853,196.697800   C269.675659,221.456314 269.384552,246.216797 269.014771,271.703857   C268.947845,272.608215 268.913391,272.785309 268.426910,272.969086   C264.369598,272.990265 260.764282,273.004761 257.090668,272.991028   C257.022369,272.962769 256.880157,272.922485 256.905304,272.459290   C256.937256,237.984695 256.944092,203.973251 256.950897,169.961823  z"/>
<path fill="#B8B34F" opacity="1.000000" stroke="none" d=" M256.566467,169.999115   C256.944092,203.973251 256.937256,237.984695 256.459076,272.479218   C252.293198,272.613007 248.598694,272.263733 244.904190,271.914459   C244.935837,252.092255 245.058350,232.269485 244.936630,212.448227   C244.905365,207.356995 244.441299,202.213455 243.591782,197.192795   C241.294067,183.613525 231.967941,177.052475 219.456589,174.039917   C210.773178,171.949051 201.992691,170.250549 193.339615,168.046814   C178.604935,164.294220 165.353073,157.607254 153.427307,148.043198   C138.787384,136.302460 127.375984,121.997940 119.720825,105.041451   C114.005051,92.380798 109.761147,79.055649 104.861816,66.026405   C105.346840,65.454437 105.831863,64.882462 106.316895,64.310493   C116.425835,65.219528 126.627884,65.552917 136.622421,67.169312   C152.565842,69.747818 167.960999,74.565727 182.289536,82.126617   C196.335098,89.538185 208.442368,99.350777 219.117081,111.318565   C230.696136,124.300270 240.092255,138.496552 247.526840,154.094009   C249.550583,158.339752 251.005249,162.855499 252.995697,167.119141   C253.558472,168.324661 255.093109,169.076477 256.566467,169.999115  z"/>
<path fill="#BC9048" opacity="1.000000" stroke="none" d=" M244.443771,271.942810   C248.598694,272.263733 252.293198,272.613007 256.433929,272.942383   C256.880157,272.922485 257.022369,272.962769 257.047821,273.455261   C257.009918,290.258514 256.946564,306.569244 256.425934,322.910828   C220.052689,322.963348 184.136627,322.963013 148.220825,323.055756   C145.800430,323.061981 143.381851,323.770844 140.962433,324.152893   C135.174240,324.152893 129.386032,324.152893 123.302246,324.152893   C123.302246,306.618164 123.302246,289.591644 123.302246,271.971161   C163.607361,271.971161 203.795364,271.971161 244.443771,271.942810  z"/>
<path fill="#9C702F" opacity="1.000000" stroke="none" d=" M256.883240,322.879974   C256.946564,306.569244 257.009918,290.258514 257.116119,273.483521   C260.764282,273.004761 264.369598,272.990265 268.907715,272.978241   C309.839111,272.977478 349.837738,272.974182 389.836334,272.970917   C389.836334,289.741119 389.836334,306.511322 389.836334,324.055450   C384.137299,324.055450 378.557434,324.055450 372.151489,323.869873   C370.025452,323.461548 368.725464,323.044403 367.425507,323.044373   C330.657684,323.043640 293.889862,323.085022 257.062256,323.059692   C257.002472,322.999878 256.883240,322.879974 256.883240,322.879974  z"/>
<path fill="#9C702F" opacity="1.000000" stroke="none" d=" M141.134552,324.507294   C143.381851,323.770844 145.800430,323.061981 148.220825,323.055756   C184.136627,322.963013 220.052689,322.963348 256.425964,322.910828   C256.883240,322.879974 257.002472,322.999878 257.030701,323.514282   C257.069031,329.323120 257.079132,334.617554 257.089233,339.911987   C257.089233,339.911987 256.965912,340.039337 256.903870,340.104370   C219.585907,340.126068 182.330017,340.082703 144.615509,340.039764   C143.206802,334.980713 142.256744,329.921204 141.134552,324.507294  z"/>
<path fill="#80592E" opacity="1.000000" stroke="none" d=" M257.548615,339.936829   C257.079132,334.617554 257.069031,329.323120 257.090485,323.574097   C293.889862,323.085022 330.657684,323.043640 367.425507,323.044373   C368.725464,323.044403 370.025452,323.461548 371.686951,323.893982   C371.365173,328.484741 370.681854,332.865845 369.924530,337.655762   C367.702759,338.711304 365.556610,339.915375 363.406952,339.921661   C328.274231,340.024506 293.141052,339.976044 257.548615,339.936829  z"/>
<path fill="#AF8F30" opacity="1.000000" stroke="none" d=" M389.644775,272.593079   C349.837738,272.974182 309.839111,272.977478 269.359711,272.971588   C268.913391,272.785309 268.947845,272.608215 269.034332,272.165863   C307.216736,271.933716 345.347046,271.963715 383.477386,272.008942   C385.469391,272.011292 387.461243,272.143463 389.644775,272.593079  z"/>
</svg>